<?xml version="1.0" encoding="UTF-8" standalone="no"?>
<!-- Created with Inkscape (http://www.inkscape.org/) -->
<svg
   xmlns:svg="http://www.w3.org/2000/svg"
   xmlns="http://www.w3.org/2000/svg"
   version="1.0"
   width="90"
   height="90"
   id="svg2248">
  <defs
     id="defs2250" />
  <g
     transform="translate(-172.14286,-373.07647)"
     id="layer1">
    <g
       transform="translate(112.14286,70.714288)"
       id="iconsvg">
      <path
         d="M 125,327.36218 L 120,327.36218 L 120,377.36218 L 115,377.36218 L 125,392.36218 L 135,377.36218 L 130,377.36218 L 130,327.36218 L 125,327.36218 z "
         style="fill:#ffff00;fill-opacity:1;fill-rule:evenodd;stroke:none;stroke-width:1px;stroke-linecap:butt;stroke-linejoin:miter;stroke-opacity:1"
         id="path3261" />
      <path
         d="M 104.03806,321.40024 L 107.57359,317.86471 L 142.92893,353.22005 L 146.46446,349.68451 L 150,367.36218 L 132.32233,363.82665 L 135.85786,360.29112 L 100.50253,324.93578 L 104.03806,321.40024 z "
         style="fill:#0000ff;fill-opacity:1;fill-rule:evenodd;stroke:none;stroke-width:1px;stroke-linecap:butt;stroke-linejoin:miter;stroke-opacity:1"
         id="path3263" />
      <path
         d="M 85,327.36218 L 85,332.36218 L 135,332.36218 L 135,337.36218 L 150,327.36218 L 135,317.36218 L 135,322.36218 L 85,322.36218 L 85,327.36218 z "
         style="fill:#000000;fill-opacity:1;fill-rule:evenodd;stroke:none;stroke-width:1px;stroke-linecap:butt;stroke-linejoin:miter;stroke-opacity:1"
         id="path3265" />
      <path
         d="M 79.03806,348.32412 L 82.573594,351.85966 L 117.92893,316.50432 L 121.46447,320.03985 L 125,302.36218 L 107.32233,305.89772 L 110.85786,309.43325 L 75.502526,344.78859 L 79.03806,348.32412 z "
         style="fill:#ff00ff;fill-opacity:1;fill-rule:evenodd;stroke:none;stroke-width:1px;stroke-linecap:butt;stroke-linejoin:miter;stroke-opacity:1"
         id="path3267" />
      <path
         d="M 85,367.36218 L 90,367.36218 L 90,317.36218 L 95,317.36218 L 85,302.36218 L 75,317.36218 L 80,317.36218 L 80,367.36218 L 85,367.36218 z "
         style="fill:#ff8200;fill-opacity:1;fill-rule:evenodd;stroke:none;stroke-width:1px;stroke-linecap:butt;stroke-linejoin:miter;stroke-opacity:1"
         id="path3269" />
      <path
         d="M 105.96194,373.32412 L 102.42641,376.85965 L 67.07107,341.50432 L 63.53554,345.03985 L 60,327.36218 L 77.67767,330.89771 L 74.14214,334.43325 L 109.49748,369.78859 L 105.96194,373.32412 z "
         style="fill:#7e00ff;fill-opacity:1;fill-rule:evenodd;stroke:none;stroke-width:1px;stroke-linecap:butt;stroke-linejoin:miter;stroke-opacity:1"
         id="path3271" />
      <path
         d="M 75,357.375 L 60,367.375 L 75,377.375 L 75,372.375 L 120,372.375 L 120,362.375 L 75,362.375 L 75,357.375 z "
         style="fill:#00ff00;fill-opacity:1;fill-rule:evenodd;stroke:none;stroke-width:1px;stroke-linecap:butt;stroke-linejoin:miter;stroke-opacity:1"
         id="path3273" />
      <path
         d="M 120,349.8125 L 92.0625,377.71875 L 88.53125,374.1875 L 85,391.875 L 102.6875,388.3125 L 99.15625,384.78125 L 120,363.9375 L 120,349.8125 z "
         style="fill:#ff0000;fill-opacity:1;fill-rule:evenodd;stroke:none;stroke-width:1px;stroke-linecap:butt;stroke-linejoin:miter;stroke-opacity:1"
         id="path3275" />
    </g>
  </g>
</svg>
