/* XPM */
static const char *const cd_xpm[] = {
/* columns rows colors chars-per-pixel */
"32 32 43 1",
"  c gray1",
". c gray2",
"X c gray4",
"o c gray6",
"O c #101010",
"+ c gray9",
"@ c gray10",
"# c #1E1E1E",
"$ c #222222",
"% c #272727",
"& c gray16",
"* c gray18",
"= c #373737",
"- c gray23",
"; c #484848",
": c #585858",
"> c #5F5F5F",
", c gray38",
"< c gray42",
"1 c #727272",
"2 c #777777",
"3 c gray47",
"4 c gray50",
"5 c #838383",
"6 c #888888",
"7 c #8E8E8E",
"8 c #939393",
"9 c #959595",
"0 c #989898",
"q c gray62",
"w c #A2A2A2",
"e c #AEAEAE",
"r c gray70",
"t c #BBBBBB",
"y c #C3C3C3",
"u c gray77",
"i c gray79",
"p c #CDCDCD",
"a c #D0D0D0",
"s c LightGray",
"d c gray87",
"f c gray96",
"g c gray100",
/* pixels */
"gggggggggggggggggggggggggggggggg",
"gggggggggggggggggggggggggggggggg",
"gggggggggggggggggggggggggggggggg",
"gggggggggggggggggggggggggggggggg",
"gggggggggggggggggggggggggggggggg",
"gggggggggggggggggggggggggggggggg",
"gggggggggggggggggggggggggggggggg",
"gggggggggggggggggggggggggggggggg",
"gggggggggs71:-$XX$-:17sggggggggg",
"ggggggs5%     X@@X     &5sgggggg",
"ggggd-   *>260qqqq9995-.  -dgggg",
"gggeo &,8qqqqqqqqqwuspsu5= oeggg",
"gg1  >qqqqqqqqqqqqtpspsppy<  1gg",
"ge +5qqqqqqqqq822wpspsyrwqq5+ eg",
"g* 5qqqqqqq7-o ## +;wwqqqqqq5 *g",
"f $qqqqqqqq%>pfggfp>%qqqqqqqq$ f",
"f $qqqqqqqq%>ifggfi>%qqqqqqqq$ f",
"g* 5qqqqqqww;+ ## O-7qqqqqqq5 *g",
"ge +5qqwrypsspw239qqqqqqqqq5+ eg",
"gg1  <ypspspstqqqqqqqqqqqq>. 1gg",
"gggeo =5ypspywqqqqqqqqq9,% oeggg",
"ggggd-  .-5q89qqqq962,*   -dgggg",
"ggggggs4& .   X@@X     %4sgggggg",
"gggggggggs7<:-%XX%-:17sggggggggg",
"gggggggggggggggggggggggggggggggg",
"gggggggggggggggggggggggggggggggg",
"gggggggggggggggggggggggggggggggg",
"gggggggggggggggggggggggggggggggg",
"gggggggggggggggggggggggggggggggg",
"gggggggggggggggggggggggggggggggg",
"gggggggggggggggggggggggggggggggg",
"gggggggggggggggggggggggggggggggg"
};
