/* XPM */
static const char *const dir_xpm[] = {
/* columns rows colors chars-per-pixel */
"10 10 8 1",
"  c #090909",
". c gray9",
"X c #202020",
"o c #313131",
"O c gray21",
"+ c gray31",
"@ c gray36",
"# c None",
/* pixels */
"##########",
"# oo #####",
"#.@@.#####",
"#O@@+OOOX#",
"#O@@@@@@O#",
"#O@@@@@@O#",
"#O@@@@@@O#",
"#O@@@@@@O#",
"#XOOOOOOX#",
"##########"
};
