/* XPM */
static char *empeg[] = {
/* columns rows colors chars-per-pixel */
"32 32 63 1",
"  c black",
". c #040404",
"X c gray3",
"o c #0B0B0B",
"O c #0B0C0C",
"+ c #0E0E0F",
"@ c gray7",
"# c #131313",
"$ c #131415",
"% c #161616",
"& c gray9",
"* c #191A1A",
"= c #1A1B1B",
"- c #1B1C1C",
"; c #1D1E1E",
": c #1F1F20",
"> c #222222",
", c #212425",
"< c #242627",
"1 c #262727",
"2 c #272A2C",
"3 c #29292A",
"4 c #2F2F2F",
"5 c #313131",
"6 c #303336",
"7 c gray21",
"8 c gray22",
"9 c #3A3A3B",
"0 c #3D3E3E",
"q c #3B3E41",
"w c #3E4244",
"e c gray25",
"r c #444444",
"t c #494949",
"y c #4C4C4C",
"u c #4C5155",
"i c gray37",
"p c gray39",
"a c #686868",
"s c #666D72",
"d c #6A7176",
"f c gray45",
"g c gray47",
"h c #7B7B7B",
"j c #7C7C7C",
"k c gray51",
"l c #959595",
"z c #979797",
"x c #999B9C",
"c c #9A9D9E",
"v c gray62",
"b c #9D9FA1",
"n c #A2A4A5",
"m c #A7AAAB",
"M c gray77",
"N c gray81",
"B c #CED1D3",
"V c LightGray",
"C c #D8D8D8",
"Z c gray87",
"A c gray93",
"S c #F6F6F6",
"D c gray100",
/* pixels */
"DDDDDDDDDDDDDDDDDDDDDDDDDDDDDDDD",
"DDDDDDDDDDDDDDDDDDDDDDDDDDDDDDDD",
"DDDDDDDDDDDDDDDDDDDDDDDDDDDDDDDD",
"DDDDDDDDDDDDDDDDDDDDDDDDDDDDDDDD",
"DDDDDDDDDDDDDDDDDDDDDDDDDDDDDDDD",
"DDDDDDDDDDDDDDDDDDDDDDDDDDDDDDDD",
"DDDDDDDDDDDDDDDDDDDDDDDDDDDDDDDD",
"DDDDDC74444444444444444445MDDDDD",
"DDDDC*X111111111111111111O+NDDDD",
"DDDC-XbBBBBBBBBBBBBBBBBBBm+@VDDD",
"DDZ-XcBBBBBBBBBBBBBBBBBBBBnX%CDD",
"DZ;XxBBBBBBBBBBBBBBBBBBBBBBbX-ZD",
"A@                            @A",
"N >eeeeeeeeeeeeeeeeeeeeeeeeee> V",
"N ivvvjvvvvvvvvvvvvvvvvvvvvvvi N",
"N ivve pvvvvvvvvvvvvvvvvvvvvvi N",
"V ia9: 20hvvvvvvvvvvvvvvf9axvi N",
"N t.6#.<2.lvvvvvvvvvvvv0*w<;vi N",
"N it*+-@>ivvvvvvvvvvvvlXsdd%hi N",
"N ivv*60vvvvvvvvvvvvvvk@ddd3pi N",
"N ivvt.avvvvvvvvvvvvvvv>qsuXli N",
"N 9iiitiiiiiiiiiiiiiiiiy;.*ri9 N",
"N                              N",
"SNNNNNNNNNNNNNNNNNNNNNNNNNNNNNNS",
"DDDDDDDDDDDDDDDDDDDDDDDDDDDDDDDD",
"DDDDDDDDDDDDDDDDDDDDDDDDDDDDDDDD",
"DDDDDDDDDDDDDDDDDDDDDDDDDDDDDDDD",
"DDDDDDDDDDDDDDDDDDDDDDDDDDDDDDDD",
"DDDDDDDDDDDDDDDDDDDDDDDDDDDDDDDD",
"DDDDDDDDDDDDDDDDDDDDDDDDDDDDDDDD",
"DDDDDDDDDDDDDDDDDDDDDDDDDDDDDDDD",
"DDDDDDDDDDDDDDDDDDDDDDDDDDDDDDDD"
};
