/* XPM */
static const char *const ffwd_xpm[] = {
/* columns rows colors chars-per-pixel */
"16 16 39 1",
"  c #020202",
". c gray2",
"X c #0B0B0B",
"o c gray5",
"O c #101010",
"+ c gray8",
"@ c gray14",
"# c #252525",
"$ c gray18",
"% c #343434",
"& c #393939",
"* c gray24",
"= c gray26",
"- c gray27",
"; c gray30",
": c #505050",
"> c #565656",
", c #5B5B5B",
"< c gray39",
"1 c #676767",
"2 c DimGray",
"3 c #6D6D6D",
"4 c gray44",
"5 c #838383",
"6 c gray53",
"7 c gray54",
"8 c #979797",
"9 c #989898",
"0 c #B7B7B7",
"q c gray72",
"w c #CACACA",
"e c gray81",
"r c gray82",
"t c #E2E2E2",
"y c #E4E4E4",
"u c #ECECEC",
"i c #F6F6F6",
"p c #F8F8F8",
"a c none",
/* pixels */
"aaaaaaaaaaaaaaaa",
"paaaaiaaaaaaaaaa",
"e&raa9>yaaaaaaaa",
"e  3u8 X7paaaaaa",
"e o +; o #qaaaaa",
"e =:O  ,-X >taaa",
"e =43&.,42$ X6pa",
"e =334<1444,+ #q",
"e =444<1443,+ #0",
"e =33* ,42$ o6pa",
"e =>+  ,-X ;taaa",
"e O O- O #0aaaaa",
"e  1u8 .5iaaaaaa",
"e%waa8;taaaaaaaa",
"ppaaaiaaaaaaaaaa",
"aaaaaaaaaaaaaaaa"
};
