/* XPM */
static const char *const folder_xpm[] = {
/* columns rows colors chars-per-pixel */
"32 32 61 1",
"  c #020202",
". c gray2",
"X c gray4",
"o c #0B0B0B",
"O c #101010",
"+ c #161717",
"@ c #171819",
"# c gray10",
"$ c #1E1E1E",
"% c #222222",
"& c #252525",
"* c #262728",
"= c gray17",
"- c gray19",
"; c #373737",
": c #3A3C3D",
"> c #3F3F3F",
", c #414141",
"< c #4B4B4B",
"1 c #484A4C",
"2 c #484B4C",
"3 c #4A4D4E",
"4 c gray30",
"5 c #525557",
"6 c gray34",
"7 c gray35",
"8 c gray36",
"9 c #5C5F61",
"0 c #5D6062",
"q c #5E6163",
"w c #626262",
"e c #606365",
"r c #656565",
"t c #6D6D6D",
"y c gray43",
"u c #6F6F6F",
"i c gray44",
"p c #7B7F82",
"a c #7F8285",
"s c #808080",
"d c gray56",
"f c #8F9396",
"g c gray58",
"h c #9A9A9A",
"j c #989CA0",
"k c #989DA0",
"l c #A6ABAF",
"z c #AFAFAF",
"x c #A8ADB1",
"c c #ABB0B4",
"v c #B2B2B2",
"b c #B4B4B4",
"n c gray75",
"m c gray78",
"M c gray80",
"N c #DFDFDF",
"B c #E4E4E4",
"V c gray92",
"C c gray94",
"Z c #F6F6F6",
"A c gray100",
/* pixels */
"AAANNNNNNVAAAAAAAAAAAAAAAAAAAAAA",
"AAz      >AAAAAAAAAAAAAAAAAAAAAA",
"AA= &&&&o nAAAAAAAAAAAAAAAAAAAAA",
"Az &iiiu6 >AAAAAAAAAAAAAAAAAAAAA",
"A- 8iiiii$ wuuuuuuuuuuuuudAAAAAA",
"N $iiiiiu6               ;AAAAAA",
"N &iiiiiii76666666666666 ;AAAAAA",
"N &iiiiiiiiuuuiiuuiiuuui ;AAAAAA",
"N &uiiiiiiiiuuuiiuuuiuuu ;AAAAAA",
"N &uiiw66666666666666667 =mmmmmV",
"N &iii#                        M",
"N &iur @233233333233323323232 #A",
"N &ii, qxcccccccxccccccccccca rA",
"N &iu$ kccccccccxccccccccccc3 bA",
"N &ir &ccccccccccccccccccccc#oZA",
"N &u, qcccccccccccccccccccxf 4AA",
"N &u# jcccccccccccccccccccxq hAA",
"N &r *ccccccccccccccccccccx= BAA",
"N &, qccccccccccccccccccccx -AAA",
"N &% fccccccccccccccccccccu sAAA",
"N %.+ccccccccccccccccccccx: MAAA",
"N # 2ccccccccccccccccccccxo#AAAA",
"N O pccccccccccccccccccccs wAAAA",
"N ..xcccccccccccccccccccc3 vAAAA",
"N  ;xcccccccccccccccccccc#oZAAAA",
"N  8ccccccccccccccccccccf <AAAAA",
"N  pcccccccxcccccccccccc0 gAAAAA",
"N  5eeqqeee9eeeeeeeeeeq9$ BAAAAA",
"N                        oAAAAAA",
"VuttuututtttttttuututtttugAAAAAA",
"AAAAAAAAAAAAAAAAAAAAAAAAAAAAAAAA",
"AAAAAAAAAAAAAAAAAAAAAAAAAAAAAAAA"
};
