/* XPM */
static const char *const network_xpm[] = {
/* columns rows colors chars-per-pixel */
"32 32 44 1",
"  c #020202",
". c #060606",
"X c gray4",
"o c gray6",
"O c #111111",
"+ c gray8",
"@ c gray10",
"# c #232323",
"$ c #2A2A2A",
"% c gray18",
"& c #313131",
"* c #343434",
"= c #393939",
"- c gray26",
"; c #494949",
": c #4B4B4B",
"> c #505050",
", c #555555",
"< c #5D5D5D",
"1 c #646464",
"2 c gray40",
"3 c #6A6A6A",
"4 c #6F6F6F",
"5 c gray48",
"6 c gray49",
"7 c gray53",
"8 c #8B8B8B",
"9 c #939393",
"0 c gray60",
"q c #A7A7A7",
"w c #ACACAC",
"e c #C1C1C1",
"r c gray77",
"t c #CBCBCB",
"y c #CDCDCD",
"u c #D8D8D8",
"i c #DADADA",
"p c gray87",
"a c #E1E1E1",
"s c #E7E7E7",
"d c gray91",
"f c gray96",
"g c gray99",
"h c gray100",
/* pixels */
"hhhhhhhhhrhhhhhhhhhhhhehhhhhhhhh",
"hhhhhhhhw 6hhhhhhhhhh5 ehhhhhhhh",
"hhhhhhhf#odphhhhhhhhpso#fhhhhhhh",
"hhhhhhh4 9sO3hhhhhh3os9 4hhhhhhh",
"hhhhhha =d> ehhhhhhe >s- ahhhhhh",
"hhhhhhw 0w 3hhhhhhhh2 w0 whhhhhh",
"hhhhhh5 r4 yhhhhhhhhy 4e 5hhhhhh",
"hhhhhh;Oi-Oahhhiihhha+-iO;hhhhhh",
"hhhhhh;Oi-+ahhhoohhha+-i+;hhhhhh",
"hhhhhh5 r4 yhht  thhy 4r 5hhhhhh",
"hhhhhhw 0w 2hh8  8hh2 w0 whhhhhh",
"hhhhhha =d> eh;oo;he >d= phhhhhh",
"hhhhhhh4 9sO3ho;;oh3os9 4hhhhhhh",
"hhhhhhhf#oapht 88 thpso#fhhhhhhh",
"hhhhhhhhe 6hh8 tt 8hh5 ehhhhhhhh",
"hhhhhhhhhehhh$ %% $hhhehhhhhhhhh",
"hhhhhhhhhhhhg. oo .hhhhhhhhhhhhh",
"hhhhhhhhhhhht @XX@ thhhhhhhhhhhh",
"hhhhhhhhhhhh8 q  q 8hhhhhhhhhhhh",
"hhhhhhhhhhhh;o2  1o;hhhhhhhhhhhh",
"hhhhhhhhhhhho% 21 %ohhhhhhhhhhhh",
"hhhhhhhhhhht .%ff%. thhhhhhhhhhh",
"hhhhhhhhhhh7 XihhiX 7hhhhhhhhhhh",
"hhhhhhhhhhh# o%%%%o #hhhhhhhhhhh",
"hhhhhhhhhhh. X$&&$X..ghhhhhhhhhh",
"hhhhhhhhhht ; +ee+ > thhhhhhhhhh",
"hhhhhhhhhh8 ye+  +wu 8hhhhhhhhhh",
"hhhhhhhhhh;Ohf,  ,fgo;hhhhhhhhhh",
"hhhhhhhhhho;a* << &s;ohhhhhhhhhh",
"hhhhhhhhht 2+ 9hh9.+3 thhhhhhhhh",
"hhhhhhhhh8 .@ehhhhe+  8hhhhhhhhh",
"hhhhhhhhh* *ahhhhhha& &hhhhhhhhh"
};
