/* XPM */
static const char *const output_xpm[] = {
/* columns rows colors chars-per-pixel */
"32 32 56 1",
"  c black",
". c #060606",
"X c gray3",
"o c #0E0E0E",
"O c #101010",
"+ c #161616",
"@ c #191919",
"# c #1E1E1E",
"$ c #202020",
"% c gray15",
"& c gray17",
"* c #2F2F2F",
"= c #313131",
"- c gray21",
"; c gray23",
": c gray24",
"> c gray26",
", c gray28",
"< c #484848",
"1 c gray30",
"2 c #535353",
"3 c #565656",
"4 c gray35",
"5 c #5F5F5F",
"6 c gray39",
"7 c gray40",
"8 c #6A6A6A",
"9 c #6F6F6F",
"0 c #727272",
"q c #747474",
"w c #797979",
"e c gray49",
"r c #838383",
"t c gray53",
"y c gray54",
"u c gray55",
"i c #929292",
"p c #979797",
"a c gray60",
"s c #9D9D9D",
"d c #A2A2A2",
"f c #A7A7A7",
"g c #AAAAAA",
"h c gray68",
"j c gray70",
"k c #BBBBBB",
"l c #BCBCBC",
"z c #C6C6C6",
"x c #D2D2D2",
"c c gray85",
"v c gray92",
"b c #EFEFEF",
"n c #F1F1F1",
"m c gray97",
"M c gray98",
"N c gray100",
/* pixels */
"NNNNNNNNNNNNNNNNNbMNNNNNNNNNNNNN",
"NNNNNNNNNNNNNNNu# X>xNNNNNNNNNNN",
"NNNNNNNNNNNNNM: .&# .fNNNNNNNNNN",
"NNNNNNNNNNNNN0 &idfwXocNNNNNNNNN",
"NNNNNNNNNNNNj +uasdf9 *mNNNNNNNN",
"NNNNNNNNNNNb+ 9ipaddg> qNNNNNNNN",
"NNNNNNNNNNNs >yuiasdfdoOMNNNNNNN",
"NNNNNNNNNNN, 9tyiiasdf, jNNNNNNN",
"NNNNNNNNNnu +ertyipasde 6NNNNNNN",
"NNNNNNNNko  :eetyyipsddoOMNNNNNN",
"NNNNNNNn# + 5qeettupasd> zNNNNNN",
"NNNNNNNi :$ 8&O6etyiias3 gNNNNNN",
"NNNNNNN> qO.:%6Oertuipa7 iNNNNNN",
"NNNNNNN.+t.O%eh.9eryuip0 qNNNNNN",
"NNNNNNv &e #+sh@3eetyuir 5NNNNNN",
"NNNNNNx -9 $ lg=:qertyiy >NNNNNN",
"NNNNNNx -9 $ kg=:qwettyy >NNNNNN",
"NNNNNNv &e @+af@10qweryq 5NNNNNN",
"NNNNNNN.+t.o$wd 59qwert7 qNNNNNN",
"NNNNNNN> qO.=$5O789qqer3 iNNNNNN",
"NNNNNNNi :# <$o,6789qwe< gNNNNNN",
"NNNNNNNn# + :23456880qw= zNNNNNN",
"NNNNNNNNlo  %123456890qoOMNNNNNN",
"NNNNNNNNNnu o<123567803 6NNNNNNN",
"NNNNNNNNNNN< :<2245678* jNNNNNNN",
"NNNNNNNNNNNs $,1233567X+MNNNNNNN",
"NNNNNNNNNNNbO ;,<2356% 0NNNNNNNN",
"NNNNNNNNNNNNj X><123; *mNNNNNNNN",
"NNNNNNNNNNNNN0 O>12;.ocNNNNNNNNN",
"NNNNNNNNNNNNNM: .Oo  fNNNNNNNNNN",
"NNNNNNNNNNNNNNNy# .>xNNNNNNNNNNN",
"NNNNNNNNNNNNNNNNNnMNNNNNNNNNNNNN"
};
