/* XPM */
static const char *const pause_xpm[] = {
/* columns rows colors chars-per-pixel */
"16 16 9 1",
"  c black",
". c #282828",
"X c gray26",
"o c #676767",
"O c gray44",
"+ c gray81",
"@ c gray89",
"# c #F6F6F6",
"$ c none",
/* pixels */
"$$@++++##++++@$$",
"$$o    ++    o$$",
"$$o X. ++ .X o$$",
"$$o OX ++ XO o$$",
"$$o OX ++ XO o$$",
"$$o OX ++ XO o$$",
"$$o OX ++ XO o$$",
"$$o OX ++ XO o$$",
"$$o OX ++ XO o$$",
"$$o OX ++ XO o$$",
"$$o OX ++ XO o$$",
"$$o OX ++ XO o$$",
"$$o OX ++ XO o$$",
"$$o X. ++ .X o$$",
"$$o    ++    o$$",
"$$@++++##++++@$$"
};
