/* XPM */
static const char *const play_xpm[] = {
/* columns rows colors chars-per-pixel */
"16 16 25 1",
"  c black",
". c #040404",
"X c #0B0B0B",
"o c #101010",
"O c #151515",
"+ c #161616",
"@ c gray15",
"# c #343434",
"$ c #444444",
"% c gray28",
"& c #535353",
"* c gray33",
"= c gray38",
"- c #676767",
"; c #6A6A6A",
": c #6F6F6F",
"> c gray44",
", c #909090",
"< c gray64",
"1 c gray71",
"2 c #D5D5D5",
"3 c #ECECEC",
"4 c gray93",
"5 c #FBFBFB",
"6 c none",
/* pixels */
"66<2666666666666",
"66-.:46666666666",
"66-  o,566666666",
"66- &O @16666666",
"66- >:$X $266666",
"66- >>>;#  :4666",
"66- >>>>>=@ X,56",
"66- >>>>>>>*O @1",
"66- >>>>>>>*O @1",
"66- >>>>>=@ o,56",
"66- >>>;#..;4666",
"66- >:$X %266666",
"66- &O @16666666",
"66-  o,566666666",
"66-.;46666666666",
"66<2666666666666"
};
