/* XPM */
static char *portable[] = {
/* columns rows colors chars-per-pixel */
"32 32 42 1",
"  c black",
". c gray2",
"X c #090909",
"o c gray6",
"O c #111111",
"+ c gray9",
"@ c #1B1B1B",
"# c #222222",
"$ c gray15",
"% c #282828",
"& c #2F2F2F",
"* c #323232",
"= c #353535",
"- c gray22",
"; c gray24",
": c gray26",
"> c #464646",
", c #494949",
"< c gray31",
"1 c #505050",
"2 c gray34",
"3 c gray35",
"4 c gray37",
"5 c #626262",
"6 c gray40",
"7 c DimGray",
"8 c #6F6F6F",
"9 c gray44",
"0 c gray48",
"q c #7E7E7E",
"w c #8E8E8E",
"e c #ACACAC",
"r c #B4B4B4",
"t c #B7B7B7",
"y c #C5C5C5",
"u c gray80",
"i c gray81",
"p c #DDDDDD",
"a c #E2E2E2",
"s c #F4F4F4",
"d c #F9F9F9",
"f c gray100",
/* pixels */
"fffffffffffffffaafffffffffffffff",
"ffffffffffffi,+  +>iffffffffffff",
"fffffffffffq .#--#. qfffffffffff",
"ffffffffffq @599995@ qffffffffff",
"fffffffffi @88989988@ ifffffffff",
"fffffffff,.3666666563X,fffffffff",
"fffffffff++.OOoOOoOO.@Offfffffff",
"ffffffffa %*ttrrtttt=% affffffff",
"fffffffft &=rrrrrrrr=& tffffffff",
"ffffffffi &=rrrrrrrr=& iffffffff",
"ffffffffi &=rrrtrrrr=& iffffffff",
"ffffffffi &=rrrtrrtt=& iffffffff",
"ffffffffi &o====*===o& iffffffff",
"ffffffffi ;11111<<1<<; iffffffff",
"ffffffffi :99999997-o= iffffffff",
"ffffffffi :999999>o>$& iffffffff",
"ffffffffi :899989>o>$& iffffffff",
"ffffffffi :894&++&2-o= iffffffff",
"ffffffffi :8:o>21=X:8: iffffffff",
"ffffffffi :2O88531>o2: iffffffff",
"ffffffffi :@4952<>,;+: iffffffff",
"ffffffffy ;X963<:;>1X; yffffffff",
"ffffffffyX-+741:*;,3O-oyffffffff",
"ffffffffd.%.52,;=>14.%.dffffffff",
"fffffffff*o@;1>;:<3:@o*fffffffff",
"fffffffffw *X:,>13<X* wfffffffff",
"ffffffffff-.=o@*=$O=.-ffffffffff",
"ffffffffffp# #*%%&@ #affffffffff",
"fffffffffffs7      7sfffffffffff",
"fffffffffffffae00eafffffffffffff",
"ffffffffffffffffffffffffffffffff",
"ffffffffffffffffffffffffffffffff"
};
