/* XPM */
static const char *const rew_xpm[] = {
/* columns rows colors chars-per-pixel */
"16 16 42 1",
"  c black",
". c #040404",
"X c gray4",
"o c gray5",
"O c #111111",
"+ c #161616",
"@ c #181818",
"# c #252525",
"$ c gray18",
"% c #343434",
"& c #3A3A3A",
"* c gray24",
"= c gray26",
"- c gray27",
"; c #484848",
": c gray30",
"> c #515151",
", c #565656",
"< c #5A5A5A",
"1 c #5B5B5B",
"2 c #626262",
"3 c #676767",
"4 c DimGray",
"5 c gray43",
"6 c gray44",
"7 c #838383",
"8 c gray53",
"9 c gray54",
"0 c #979797",
"q c #989898",
"w c #B7B7B7",
"e c gray72",
"r c #CACACA",
"t c gray81",
"y c gray82",
"u c #E2E2E2",
"i c #E4E4E4",
"p c #ECECEC",
"a c gray94",
"s c #F6F6F6",
"d c #F9F9F9",
"f c none",
/* pixels */
"ffffffffffffffff",
"ffffffffffsffffd",
"ffffffffi,qffy%y",
"ffffffd9X qa5  t",
"fffffe# O :+ o t",
"fffu, o-1  O>= t",
"fd8X $461 &56= t",
"e# @166642666= t",
"w# +166632666= t",
"fd8X $451.*56= t",
"fffu> X-1  +,= t",
"fffffe# O ;O o t",
"ffffffs7X 0p3  y",
"ffffffffu:0ffr%t",
"ffffffffffsffffs",
"ffffffffffffffff"
};
